<svg xmlns="http://www.w3.org/2000/svg" width="512" height="512" viewBox="0 0 512 512">
<defs>
<linearGradient id="bgLight" x1="0" y1="0" x2="1" y2="1">
<stop offset="0%" stop-color="#7FD7DD"></stop>
<stop offset="100%" stop-color="#1F7A8C"></stop>
</linearGradient>
<linearGradient id="bodyLight" x1="0" y1="0" x2="0" y2="1">
<stop offset="0%" stop-color="#FFFFFF"></stop>
<stop offset="100%" stop-color="#EAF6F8"></stop>
</linearGradient>
<radialGradient id="gcoin" cx="35%" cy="30%" r="80%">
<stop offset="0%" stop-color="#FFE9A8"></stop>
<stop offset="55%" stop-color="#F4BE3E"></stop>
<stop offset="100%" stop-color="#D98E04"></stop>
</radialGradient>
</defs>
<rect x="0" y="0" width="512" height="512" rx="120" ry="120" fill="url(#bgLight)"></rect>

<g transform="translate(110.5,96) scale(1.4545)">
<path d="M16,102 A84,84 0 0 1 184,102 L184,178 Q176,206 160,178 Q152,206 136,178 Q128,206 112,178 Q104,206 88,178 Q80,206 64,178 Q56,206 40,178 Q32,206 16,178 Z" fill="url(#bodyLight)" stroke="#123A46" stroke-width="4.5" stroke-linejoin="round"></path>
<path d="M52,100 Q60,88 68,100" fill="none" stroke="#123A46" stroke-width="5" stroke-linecap="round"></path>
<path d="M112,100 Q120,88 128,100" fill="none" stroke="#123A46" stroke-width="5" stroke-linecap="round"></path>
<path d="M78,116 Q90,126 102,116" fill="none" stroke="#123A46" stroke-width="4.5" stroke-linecap="round"></path>
<circle cx="128" cy="164" r="25" fill="url(#gcoin)" stroke="#123A46" stroke-width="4"></circle>
<circle cx="128" cy="164" r="17" fill="none" stroke="#D98E04" stroke-width="2.5" opacity="0.6"></circle>
</g>
</svg>
