<svg xmlns="http://www.w3.org/2000/svg" viewBox="0 0 512 512">
  <defs>
    <linearGradient id="bg" x1="0%" y1="0%" x2="100%" y2="100%">
      <stop offset="0%" stop-color="#0f0a2e"/>
      <stop offset="100%" stop-color="#0a1628"/>
    </linearGradient>
    <linearGradient id="ghost" x1="0%" y1="0%" x2="100%" y2="100%">
      <stop offset="0%" stop-color="#c4b5fd"/>
      <stop offset="100%" stop-color="#93c5fd"/>
    </linearGradient>
  </defs>
  <rect width="512" height="512" rx="120" fill="url(#bg)"/>
  <!-- Ghost body -->
  <path d="M136,400 L136,280 A120,120 0 0,1 376,280 L376,400 Q346,368 316,400 Q286,432 256,400 Q226,368 196,400 Q166,432 136,400 Z"
    fill="url(#ghost)"/>
  <!-- Eyes -->
  <circle cx="210" cy="250" r="26" fill="#1e1b4b"/>
  <circle cx="302" cy="250" r="26" fill="#1e1b4b"/>
  <!-- Eye shine -->
  <circle cx="220" cy="240" r="9" fill="white" opacity="0.8"/>
  <circle cx="312" cy="240" r="9" fill="white" opacity="0.8"/>
  <!-- Smile -->
  <path d="M220,295 Q256,318 292,295" fill="none" stroke="#1e1b4b" stroke-width="8" stroke-linecap="round"/>
  <!-- Coin on chest -->
  <circle cx="256" cy="348" r="34" fill="#f59e0b"/>
  <circle cx="256" cy="348" r="25" fill="#fbbf24"/>
  <circle cx="256" cy="348" r="15" fill="#f59e0b"/>
</svg>
